<svg xmlns="http://www.w3.org/2000/svg">
    <symbol id="icon-arrow-right" viewBox="0 0 45 8">
        <g>
            <path d="M44.3536 4.35355C44.5488 4.15829 44.5488 3.84171 44.3536 3.64645L41.1716 0.464466C40.9763 0.269204 40.6597 0.269204 40.4645 0.464466C40.2692 0.659728 40.2692 0.976311 40.4645 1.17157L43.2929 4L40.4645 6.82843C40.2692 7.02369 40.2692 7.34027 40.4645 7.53553C40.6597 7.7308 40.9763 7.7308 41.1716 7.53553L44.3536 4.35355ZM0 4.5H44V3.5H0V4.5Z"/>
        </g>
    </symbol>
    <symbol id="icon-star" viewBox="0 0 43 41">
        <g>
            <path d="M21.5 1.91666L27.5513 14.1758L41.0834 16.1537L31.2917 25.6908L33.6025 39.1642L21.5 32.7996L9.39752 39.1642L11.7084 25.6908L1.91669 16.1537L15.4488 14.1758L21.5 1.91666Z" stroke="#9CB72C" stroke-width="2" stroke-linecap="round" stroke-linejoin="round"/>
        </g>
    </symbol>
    <symbol id="icon-telega" viewBox="0 0 30 30">
        <g>
            <path d="M30 15C30 23.2837 23.2837 30 15 30C6.71625 30 0 23.2837 0 15C0 6.71625 6.71625 0 15 0C23.2837 0 30 6.71625 30 15ZM15.5375 11.0738C14.0788 11.68 11.1625 12.9363 6.79 14.8413C6.08 15.1238 5.7075 15.4 5.67375 15.67C5.61625 16.1275 6.18875 16.3075 6.96625 16.5513C7.0725 16.585 7.1825 16.6187 7.295 16.6562C8.06125 16.905 9.09125 17.1963 9.62625 17.2075C10.1125 17.2175 10.655 17.0175 11.2537 16.6075C15.3387 13.8488 17.4475 12.455 17.58 12.425C17.6737 12.4037 17.8038 12.3763 17.8913 12.455C17.9788 12.5325 17.97 12.68 17.9613 12.72C17.9037 12.9612 15.6613 15.0475 14.4987 16.1275C14.1362 16.4638 13.88 16.7025 13.8275 16.7575C13.71 16.8787 13.59 16.995 13.475 17.1063C12.7625 17.7913 12.23 18.3062 13.505 19.1462C14.1175 19.55 14.6075 19.8838 15.0962 20.2163C15.63 20.58 16.1625 20.9425 16.8525 21.395C17.0275 21.51 17.195 21.6287 17.3587 21.745C17.98 22.1887 18.5387 22.5862 19.2288 22.5237C19.6287 22.4862 20.0438 22.11 20.2537 20.9862C20.75 18.3288 21.7275 12.5737 21.9538 10.2013C21.9675 10.0043 21.9591 9.80636 21.9287 9.61125C21.9106 9.45366 21.8338 9.30866 21.7138 9.205C21.535 9.05875 21.2575 9.0275 21.1325 9.03C20.5688 9.04 19.7038 9.34125 15.5375 11.0738Z"/>
        </g>
    </symbol>
    <symbol id="icon-whatsapp" viewBox="0 0 30 30">
        <g>
            <path d="M27.7564 6.93732C23.2688 -0.000229331 14.1065 -2.06274 7.00111 2.24979C0.0826717 6.56232 -2.16114 15.9374 2.32649 22.8749L2.70046 23.4375L1.20458 29.0625L6.81412 27.5625L7.37508 27.9375C9.80588 29.25 12.4237 30 15.0415 30C17.8462 30 20.651 29.25 23.0818 27.75C30.0002 23.2499 32.0571 14.0624 27.7564 6.93732ZM23.8297 21.3749C23.0818 22.4999 22.1469 23.2499 20.838 23.4375C20.09 23.4375 19.1551 23.8125 15.4154 22.3124C12.2367 20.8124 9.61889 18.3749 7.74905 15.5624C6.62714 14.2499 6.06618 12.5624 5.8792 10.8749C5.8792 9.37484 6.44015 8.06233 7.37508 7.12483C7.74905 6.74982 8.12302 6.56232 8.49699 6.56232H9.43191C9.80588 6.56232 10.1798 6.56232 10.3668 7.31233C10.7408 8.24983 11.6757 10.4999 11.6757 10.6874C11.8627 10.8749 11.8627 11.2499 11.6757 11.4374C11.8627 11.8124 11.6757 12.1874 11.4887 12.3749C11.3018 12.5624 11.1148 12.9374 10.9278 13.1249C10.5538 13.3124 10.3668 13.6874 10.5538 14.0624C11.3018 15.1874 12.2367 16.3124 13.1716 17.2499C14.2935 18.1874 15.4154 18.9374 16.7243 19.4999C17.0983 19.6874 17.4723 19.6874 17.6592 19.3124C17.8462 18.9374 18.7811 17.9999 19.1551 17.6249C19.5291 17.2499 19.7161 17.2499 20.09 17.4374L23.0818 18.9374C23.4558 19.1249 23.8297 19.3124 24.0167 19.4999C24.2037 20.0624 24.2037 20.8124 23.8297 21.3749Z"/>
        </g>
    </symbol>
</svg>