<svg width="158" height="133" viewBox="0 0 158 133" fill="none" xmlns="http://www.w3.org/2000/svg">
<g clip-path="url(#clip0_173_860)">
<path d="M70.6847 118.836C70.7269 118.41 71.312 117.893 71.9092 117.623C73.0975 117.094 74.4608 117.346 74.5754 117.376C74.6961 117.406 74.8288 117.49 74.8167 117.623C74.8167 117.701 74.7865 117.767 74.7323 117.827C74.678 117.887 74.5996 117.905 74.5211 117.899C74.0748 117.851 73.6103 117.851 73.1398 117.917C72.6632 117.983 72.2651 118.133 71.8972 118.41C71.7584 118.518 71.6559 118.68 71.6076 118.836C71.5594 118.993 71.4809 119.119 71.3663 119.221C71.2276 119.353 71.0346 119.335 70.8898 119.263C70.7028 119.173 70.6726 119.017 70.6907 118.824L70.6847 118.836ZM108.386 118.248C108.524 118.332 108.754 118.296 108.88 118.205C108.995 118.121 109.049 117.977 109.103 117.821C109.176 117.605 109.321 117.472 109.459 117.358C109.719 117.154 110.292 116.944 110.738 116.98C111.094 117.01 111.191 116.811 111.191 116.697C111.191 116.559 111.046 116.445 110.889 116.415C110.575 116.349 109.827 116.343 109.031 116.829C108.844 116.944 108.639 117.106 108.494 117.262C108.349 117.418 108.253 117.556 108.199 117.761C108.15 117.947 108.211 118.133 108.386 118.242V118.248ZM50.7002 124.695C49.3611 125.759 47.8892 126.648 46.2907 127.369C44.6922 128.091 43.0937 128.643 41.4469 129.124C41.3443 129.154 41.1272 129.214 41.0065 129.25C40.9341 129.394 40.8437 129.587 40.7954 129.701C40.5903 130.164 40.2163 131.101 39.9992 131.558C39.9388 131.69 39.6553 132.357 39.5528 132.627C39.4804 132.82 39.3658 132.946 39.1848 132.988C39.022 133.018 38.8832 132.964 38.7807 132.832C38.6781 132.693 38.66 132.555 38.7203 132.417C38.9375 131.912 39.1728 131.414 39.4321 130.915C39.6915 130.422 39.9569 129.917 40.2163 129.406C39.9931 129.473 39.7096 129.521 39.5045 129.581C39.2813 129.641 38.6902 129.761 38.4429 129.767C38.274 129.767 38.1292 129.731 38.0327 129.557C37.9663 129.437 37.9663 129.316 38.0447 129.178C38.1232 129.04 38.3343 128.968 38.467 128.956C38.835 128.92 39.6734 128.884 40.5059 128.685C41.9898 125.386 44.288 121.396 45.41 119.846C45.2471 119.888 44.6258 120.134 44.481 120.201C43.4375 120.681 42.6111 121.054 41.7063 121.739C41.3443 122.015 41.0608 122.322 40.9583 122.43C40.7894 122.604 40.5782 122.808 40.3128 122.784C40.1258 122.766 39.9931 122.658 39.963 122.484C39.9328 122.298 40.0715 122.087 40.2163 121.985C40.8859 121.438 41.5072 121.054 42.2853 120.657C43.0695 120.261 43.8416 119.876 44.6379 119.552C45.2109 119.317 45.7056 119.161 45.9107 119.095C45.9107 119.095 46.2726 118.626 46.3812 118.458C47.0206 117.514 47.8892 116.811 48.4804 116.493C48.8061 116.319 49.2042 116.162 49.4515 116.156C49.6204 116.156 49.7712 116.204 49.8738 116.301C49.9703 116.397 50.0186 116.529 49.9582 116.703C49.8979 116.877 49.717 116.968 49.5119 116.992C48.981 117.052 48.5708 117.214 48.1124 117.575C47.654 117.935 47.2317 118.338 46.8456 118.782C47.3222 118.644 47.7987 118.536 48.2692 118.446C48.7397 118.356 49.2223 118.308 49.7109 118.296C50.109 118.296 50.5072 118.332 50.8992 118.416C51.2913 118.5 51.6593 118.644 51.9911 118.83C52.3228 119.023 52.5943 119.275 52.8175 119.588C53.0346 119.9 53.1673 120.279 53.2035 120.717C53.2397 121.126 53.1854 121.517 53.0346 121.895C52.8838 122.274 52.6848 122.628 52.4314 122.965C52.1781 123.301 51.8946 123.614 51.5869 123.908C51.2793 124.203 50.9777 124.461 50.6942 124.683L50.7002 124.695ZM50.5795 123.956C50.857 123.704 51.1164 123.427 51.3637 123.121C51.611 122.82 51.8342 122.496 52.0333 122.159C52.2324 121.823 52.353 121.492 52.4013 121.168C52.4495 120.843 52.4013 120.531 52.2746 120.231C52.1419 119.93 51.8704 119.672 51.4723 119.443C51.0078 119.179 50.483 119.041 49.91 119.023C49.3369 119.005 48.782 119.023 48.2572 119.113C47.9133 119.167 47.5755 119.239 47.2558 119.305C46.9361 119.371 46.6044 119.455 46.2605 119.564L45.8564 120.146C45.3436 120.874 44.8671 121.625 44.4268 122.382C43.9924 123.145 43.5642 123.92 43.1479 124.719C42.8222 125.356 42.5085 125.993 42.2069 126.63C41.9053 127.267 41.5977 127.91 41.29 128.559C42.0863 128.385 42.8705 128.151 43.6546 127.868C44.7646 127.496 45.8503 127.045 46.8999 126.51C47.9495 125.975 48.9328 125.332 49.8436 124.587C50.0547 124.419 50.3021 124.203 50.5795 123.95V123.956ZM119.539 120.723C119.437 120.825 119.111 121.132 118.839 121.33C118.532 121.553 117.301 122.424 115.431 122.586C114.997 122.622 114.357 122.568 114.08 122.478C113.802 122.388 113.549 122.25 113.32 122.057C113.091 121.865 112.916 121.607 112.795 121.282C112.753 121.162 112.668 120.831 112.662 120.585C112.5 120.675 109.948 122.358 109.315 122.712C108.844 122.977 108.38 123.187 107.963 123.253C107.644 123.307 107.39 123.241 107.227 123.097C107.065 122.947 106.932 122.61 106.914 122.178C106.89 121.583 107.04 121.102 107.209 120.585C106.872 120.753 102.185 123.488 101.756 123.686C101.485 123.812 101.159 123.902 100.864 123.884C100.622 123.866 100.411 123.788 100.266 123.638C100.176 123.542 100.049 123.325 100.043 122.989C100.031 122.202 100.315 121.378 100.315 121.378C100.242 121.402 99.9768 121.486 99.7476 121.571C99.5184 121.649 98.9151 121.859 98.3481 121.805C98.0948 121.781 97.8776 121.697 97.7449 121.541C97.7449 121.541 97.6846 121.583 97.5579 121.661C97.4373 121.739 93.8723 124.124 92.3099 124.557C92.0144 124.647 91.7067 124.689 91.3931 124.695C91.0794 124.695 90.7838 124.659 90.5124 124.569C90.2349 124.479 89.9815 124.341 89.7523 124.149C89.5231 123.956 89.1732 123.488 89.1189 122.995C87.3998 123.313 84.8964 125.356 84.2691 125.687C83.7141 125.981 83.2738 126.101 82.8455 126.107C82.5439 126.107 82.2664 126.053 82.0131 125.861C81.7597 125.669 81.633 125.44 81.5968 125.17C81.5788 125.032 81.5908 124.924 81.6572 124.834C81.7235 124.743 81.814 124.683 81.9166 124.653C82.0191 124.623 82.1156 124.629 82.2061 124.683C82.2966 124.737 82.3509 124.828 82.381 124.966C82.4414 125.266 82.5861 125.428 82.8274 125.465C83.0687 125.495 83.3462 125.477 83.6538 125.356C83.8649 125.272 84.0459 125.152 84.2088 125.02C84.3716 124.894 84.4862 124.773 84.5526 124.659C84.7336 124.431 84.7275 124.263 84.6672 124.149C84.5948 124.016 84.4078 123.956 84.1484 123.914C83.9192 123.878 83.2979 123.86 82.936 123.638C82.7792 123.542 82.6947 123.391 82.6585 123.271C82.6223 123.151 82.6344 123.037 82.6585 122.911C82.4413 123.019 82.2242 123.133 82.0131 123.253C81.8019 123.373 77.4528 126.113 76.8857 126.384C76.4936 126.576 76.1016 126.72 75.6672 126.744C75.3656 126.762 75.0882 126.69 74.8348 126.498C74.5815 126.306 74.4548 126.077 74.4186 125.807C74.4005 125.669 74.4126 125.561 74.4789 125.471C74.5453 125.38 74.6357 125.32 74.7383 125.29C74.8408 125.26 74.9374 125.266 75.0278 125.32C75.1183 125.374 75.1726 125.465 75.2028 125.603C75.2571 125.903 75.4079 126.065 75.6492 126.101C75.8904 126.132 76.18 126.138 76.4756 125.993C76.8797 125.795 77.1451 125.621 77.3804 125.32C77.5613 125.092 77.5734 124.906 77.489 124.785C77.4045 124.659 77.2235 124.587 76.9943 124.533C76.7651 124.479 76.18 124.551 75.7758 124.281C75.625 124.179 75.5285 124.028 75.4923 123.914C75.4561 123.794 75.4501 123.674 75.4742 123.554C75.1002 123.722 74.7443 123.902 74.1833 124.221C73.6043 124.545 71.3603 126.017 71.0346 126.204C70.6364 126.432 70.3167 126.582 69.9789 126.63C69.7256 126.666 69.4541 126.57 69.3154 126.432C69.1163 126.234 69.056 125.993 69.0319 125.717C69.0078 125.44 69.05 124.779 69.2852 123.962C68.9354 124.076 68.1693 124.473 67.8255 124.647C67.5118 124.804 64.4655 126.384 64.1519 126.546C63.8382 126.708 63.235 127.039 62.8007 127.183C62.481 127.291 62.0828 127.375 61.8114 127.333C61.54 127.297 61.3047 127.039 61.2685 126.714C61.1841 126.005 61.54 125.218 61.8295 124.569C60.8764 125.332 58.9039 126.426 58.4756 126.702C58.1318 126.925 57.3416 127.381 57.1425 127.502C56.9374 127.628 56.5333 127.832 56.3161 127.928C56.0929 128.024 55.8697 128.097 55.6345 128.151C55.3992 128.205 55.1821 128.199 54.983 128.139C54.7176 128.054 54.5668 127.91 54.4884 127.736C54.41 127.556 54.416 127.351 54.4582 127.135L53.8972 127.562C53.6559 127.736 53.4569 127.904 53.1553 128.084C52.8778 128.247 52.5159 128.409 52.1841 128.445C51.8222 128.493 51.5085 128.421 51.3034 128.265C50.8329 127.916 50.9656 126.841 51.9368 125.849C52.1539 125.627 52.3832 125.41 52.8114 125.08C52.7089 125.122 52.546 125.2 52.3168 125.326C52.0936 125.452 51.8403 125.603 51.5568 125.783C51.2732 125.957 50.9777 126.144 50.664 126.33C50.3503 126.516 50.0125 126.774 49.8436 126.847C49.723 126.895 49.5179 126.961 49.3972 126.805C49.2887 126.66 49.3611 126.492 49.536 126.372C49.7712 126.21 51.3336 125.248 52.5098 124.677C53.0346 124.425 53.9334 124.046 54.6754 123.902C54.9408 123.854 55.176 123.836 55.3992 123.926C55.6104 124.01 55.6285 124.233 55.5561 124.371C55.4656 124.545 55.3088 124.581 55.1399 124.617C54.8865 124.665 54.597 124.653 54.1325 124.84C53.9274 124.924 53.5534 125.128 53.3181 125.314C52.7632 125.753 52.1539 126.612 51.9307 127.087C51.8342 127.297 51.8403 127.556 51.9549 127.634C52.0514 127.7 52.2625 127.712 52.4555 127.634C53.0467 127.405 53.6318 127.015 53.9153 126.799C54.3255 126.486 54.6633 126.168 54.9046 125.843C55.0252 125.681 55.176 125.651 55.3449 125.747C55.5138 125.843 55.5802 125.999 55.5319 126.198C55.4656 126.48 55.1037 126.69 55.0132 127.063C54.9649 127.267 55.1218 127.333 55.2002 127.345C55.4234 127.375 55.6888 127.339 55.9964 127.249C56.3101 127.159 56.6298 127.045 56.9555 126.895C57.8905 126.462 60.4542 124.918 60.9247 124.587C61.3892 124.257 61.8657 123.914 62.3 123.524L62.5715 122.953C62.3483 122.989 62.0889 123.043 61.8174 123.097C61.5581 123.145 61.3409 123.175 61.166 123.097C61.0091 123.031 60.991 122.899 61.0152 122.79C61.0453 122.652 61.1901 122.562 61.3228 122.544C61.5701 122.508 62.1492 122.514 62.8912 122.376C63.2591 121.691 63.6572 120.976 64.0855 120.231C64.5138 119.485 65.0145 118.842 65.5996 118.308C65.8047 118.115 66.0942 117.905 66.2933 117.887C66.4441 117.875 66.613 117.911 66.6974 118.025C66.7819 118.139 66.7879 118.362 66.7517 118.5C66.6854 118.752 66.5647 119.005 66.3536 119.323C66.1425 119.642 65.9555 119.864 65.7625 120.14C65.5453 120.447 65.3523 120.777 65.1231 121.084C64.8999 121.39 64.6706 121.697 64.4354 121.991C64.4354 121.991 65.1713 121.763 65.7504 121.559C66.4923 121.288 67.8677 120.651 68.1512 120.585C68.308 120.549 68.4649 120.573 68.5855 120.675C68.7001 120.771 68.7484 120.916 68.7122 121.048C68.676 121.18 68.5674 121.294 68.4528 121.348C67.8194 121.631 67.0895 121.859 66.3295 122.081C65.5875 122.298 64.8456 122.43 64.1338 122.616C64.0554 122.634 63.8201 122.712 63.8201 122.712C63.6512 122.893 63.4763 123.079 63.2953 123.259C63.1143 123.439 62.9213 123.626 62.7283 123.812C62.1552 124.948 61.9803 125.915 61.9622 126.095C61.9381 126.336 62.0467 126.426 62.107 126.474C62.2698 126.594 62.7162 126.498 63.0782 126.348C63.4401 126.204 66.0882 124.852 67.0714 124.317C67.5842 124.04 69.0078 123.307 69.4722 123.175C69.6834 123.115 69.8643 123.067 70.0151 123.115C70.178 123.169 70.2564 123.289 70.2323 123.53C70.2142 123.668 70.1177 123.878 70.0332 124.022C69.8764 124.293 69.7557 124.755 69.6954 125.05C69.6351 125.344 69.6592 125.681 69.8462 125.777C70.0393 125.873 70.371 125.783 70.6666 125.645C70.9742 125.501 74.7624 123.181 75.5587 122.833C76.0533 122.61 76.3368 122.538 76.5781 122.526C76.8013 122.52 76.9159 122.592 76.9642 122.646C77.0486 122.742 77.0727 122.899 76.9943 123.025C76.934 123.121 76.8737 123.163 76.7591 123.235C76.6445 123.307 76.4997 123.367 76.3609 123.415C76.2222 123.463 76.1317 123.524 76.0895 123.59C76.0533 123.656 76.0473 123.77 76.1679 123.836C76.2886 123.902 76.4333 123.95 76.6022 123.98C76.7711 124.01 77.1632 124.052 77.4286 124.142C77.7544 124.257 77.9534 124.431 78.0258 124.617C78.0982 124.804 78.0801 124.996 77.9776 125.206C77.9776 125.206 78.4179 124.93 78.5627 124.834C79.365 124.323 81.434 122.971 81.7597 122.772C82.0854 122.574 82.4172 122.394 82.755 122.22C83.0928 122.045 83.5332 121.895 83.7745 121.889C84.0097 121.883 84.1062 121.961 84.1545 122.015C84.257 122.159 84.245 122.31 84.1786 122.4C84.1123 122.49 84.0519 122.538 83.9313 122.604C83.7322 122.712 83.31 122.808 83.2738 122.959C83.2497 123.055 83.2678 123.157 83.3884 123.217C83.509 123.283 83.8468 123.349 84.1786 123.397C84.8904 123.5 85.1076 123.734 85.2101 123.98C85.2885 124.161 85.2644 124.359 85.1618 124.569C85.1618 124.569 87.2188 122.887 89.1732 122.4C89.2818 121.871 89.6075 121.366 89.9514 121.114C90.2952 120.862 90.6632 120.675 91.0673 120.567C91.2784 120.513 91.5982 120.465 91.8817 120.483C92.1953 120.501 92.4065 120.567 92.5573 120.765C92.7262 120.982 92.696 121.33 92.4306 121.649C92.2376 121.877 91.8153 122.34 90.8984 122.652C90.5787 122.76 90.2892 122.82 89.7764 122.863C89.8368 123.175 90.0117 123.367 90.2409 123.53C90.4701 123.692 90.7295 123.8 91.0251 123.86C91.3207 123.92 91.6223 123.926 91.9299 123.884C92.2375 123.842 92.696 123.704 93.2148 123.488C93.9024 123.199 97.1236 121.36 97.4674 121.114C97.4131 120.831 97.4735 120.549 97.6544 120.279C97.8354 120.002 98.0887 119.858 98.4084 119.846C98.6256 119.858 98.7704 119.948 98.8428 120.128C98.9151 120.309 98.9031 120.483 98.8005 120.657C98.698 120.849 98.5472 121.012 98.3662 121.15C98.4748 121.198 98.6135 121.228 98.7643 121.222C99.084 121.21 99.4098 121.12 99.7415 120.946C100.079 120.771 100.29 120.573 100.568 120.417C100.815 120.273 101.075 120.303 101.165 120.447C101.256 120.591 101.238 120.777 101.123 121C101.057 121.126 100.984 121.288 100.906 121.486C100.821 121.685 100.761 121.883 100.707 122.087C100.658 122.292 100.634 122.484 100.646 122.664C100.652 122.845 100.719 122.995 100.857 123.079C100.972 123.151 101.141 123.139 101.461 123.025C102.004 122.833 106.383 120.309 106.383 120.309C106.443 120.273 106.576 120.201 106.787 120.092C106.998 119.984 107.233 119.87 107.439 119.804C107.644 119.738 107.813 119.714 107.957 119.768C108.09 119.816 108.181 119.93 108.156 120.17C108.138 120.309 108 120.567 107.927 120.759C107.819 121.048 107.68 121.474 107.626 121.769C107.565 122.063 107.559 122.37 107.77 122.466C108.006 122.574 108.313 122.418 108.615 122.298C108.916 122.178 112.578 120.038 112.874 119.858C113.042 119.491 113.241 119.251 113.585 118.999C113.929 118.746 114.321 118.584 114.731 118.494C115.323 118.368 115.968 118.5 116.137 118.686C116.252 118.8 116.294 118.921 116.252 119.065C116.209 119.203 116.131 119.341 116.01 119.473C115.89 119.606 115.389 120.164 114.544 120.471C114.225 120.585 113.694 120.693 113.344 120.693C113.398 120.982 113.591 121.282 113.815 121.444C114.044 121.607 114.303 121.715 114.599 121.775C114.894 121.835 115.196 121.841 115.504 121.799C115.811 121.757 116.095 121.703 116.348 121.631C116.704 121.523 117.054 121.396 117.392 121.252C117.729 121.108 118.061 120.946 118.381 120.765C118.526 120.675 119.014 120.369 119.159 120.309C119.334 120.231 119.473 120.207 119.587 120.273C119.726 120.351 119.714 120.567 119.557 120.723H119.539ZM113.404 120.134C113.766 120.086 114.11 119.966 114.436 119.768C114.762 119.57 115.045 119.335 115.274 119.053C115.057 118.999 114.846 118.993 114.641 119.041C114.442 119.089 114.255 119.167 114.092 119.269C113.923 119.377 113.778 119.503 113.658 119.66C113.537 119.816 113.447 119.972 113.404 120.128V120.134ZM89.8126 122.286C90.3073 122.238 90.6692 122.147 91.007 121.973C91.3629 121.799 92.1048 121.228 91.7912 121.12C91.58 121.048 91.2845 121.072 91.0794 121.12C90.8803 121.168 90.6933 121.246 90.5305 121.348C90.3616 121.456 90.2168 121.583 90.0961 121.739C89.9755 121.895 89.8609 122.123 89.8126 122.28V122.286ZM63.5487 122.232C64.176 121.553 64.7189 120.825 65.1894 120.056C65.2558 119.942 65.4488 119.588 65.5574 119.317C65.1532 119.696 64.3992 120.856 64.1639 121.186C63.9347 121.517 63.7296 121.865 63.5487 122.232Z" fill="white"/>
<path d="M10.1883 104.15L10.4839 104.174L10.2788 107.557H0V107.233C0.995304 107.209 1.48994 106.722 1.48994 105.755V97.516C1.48994 96.5065 1.00134 96.0078 0 96.0258V95.7013H9.54286L9.72382 98.5316L9.40412 98.5797C9.28951 96.9031 8.34246 96.17 6.56297 96.17H3.57706V100.947H5.09113C6.25534 100.947 6.83442 100.406 6.83442 99.2226H7.15413V103.177H6.83442C6.83442 101.969 6.25534 101.416 5.09113 101.416H3.57706V105.256C3.57706 106.584 4.46982 107.095 6.26137 107.095C8.76471 107.095 10.0737 106.217 10.1883 104.156V104.15ZM12.5589 105.46C12.2392 105.46 11.9678 105.568 11.7386 105.791C11.5093 106.013 11.3947 106.283 11.3947 106.62C11.3947 106.956 11.5093 107.227 11.7386 107.449C11.9678 107.671 12.2392 107.786 12.5589 107.786C12.8786 107.786 13.1501 107.671 13.3672 107.449C13.5904 107.227 13.699 106.95 13.699 106.62C13.699 106.289 13.5844 106.019 13.3552 105.815C13.144 105.58 12.8786 105.466 12.5589 105.466V105.46ZM27.7841 102.191C28.4174 102.804 28.7311 103.549 28.7311 104.415C28.7311 105.28 28.4174 106.019 27.7841 106.626C27.1386 107.245 26.3846 107.557 25.516 107.557H18.1266V107.233C19.1219 107.245 19.6226 106.752 19.6226 105.755V97.516C19.6226 96.5426 19.1219 96.0438 18.1266 96.0258V95.7013H24.7318C25.6065 95.7013 26.3544 95.9717 26.9818 96.5065C27.591 97.0413 27.8987 97.6963 27.8987 98.4715C27.8987 99.2467 27.6091 99.8476 27.03 100.388C26.451 100.917 25.7392 101.206 24.8886 101.26H25.516C26.3846 101.26 27.1386 101.578 27.7841 102.197V102.191ZM21.7037 101.079H23.3866C24.1105 101.079 24.6835 100.899 25.1058 100.418C25.528 99.9377 25.7331 99.3308 25.7331 98.6037C25.7331 97.8766 25.522 97.2757 25.1058 96.7949C24.6835 96.3142 24.1105 96.17 23.3866 96.17H21.7037V101.085V101.079ZM26.5656 104.354C26.5656 103.531 26.3544 102.846 25.9322 102.299C25.5099 101.758 24.9429 101.548 24.2251 101.548H21.7037V105.791C21.7037 106.139 21.8364 106.44 22.1018 106.698C22.3672 106.956 22.7955 107.083 23.3927 107.083C24.2191 107.083 24.961 106.968 25.6004 106.458C26.2459 105.947 26.5656 105.244 26.5656 104.348V104.354ZM40.91 97.1555C41.9777 98.2552 42.5146 99.7154 42.5146 101.53C42.5146 102.702 42.2311 103.766 41.6701 104.715C41.103 105.676 40.337 106.422 39.3718 106.956C38.3946 107.497 37.339 107.774 36.2049 107.774C34.4677 107.774 33.0079 107.191 31.8256 106.031C30.6433 104.871 30.0522 103.453 30.0522 101.771C30.0522 100.611 30.3115 99.5591 30.8182 98.6337C31.3491 97.6903 32.1031 96.9271 33.0863 96.3623C34.0696 95.7914 35.1795 95.503 36.4221 95.497C38.3343 95.497 39.8242 96.0498 40.904 97.1615L40.91 97.1555ZM40.1741 101.548C40.1741 99.8536 39.8363 98.5015 39.1667 97.492C38.4851 96.4644 37.5561 95.9537 36.3738 95.9537C35.6017 95.9537 34.908 96.2181 34.2928 96.7529C33.6895 97.2817 33.219 97.9787 32.8933 98.8561C32.5676 99.7274 32.4047 100.695 32.4047 101.758C32.4047 103.321 32.7787 104.643 33.5267 105.731C34.2626 106.806 35.1614 107.347 36.217 107.347C36.9107 107.347 37.5622 107.095 38.1835 106.596C38.7807 106.103 39.2632 105.406 39.6312 104.511C39.9931 103.633 40.1681 102.648 40.1681 101.56L40.1741 101.548ZM54.989 107.227V107.551H50.9234C50.9475 107.047 50.7484 106.331 50.3262 105.4L49.2887 103.074C49.1077 102.696 48.8363 102.383 48.4804 102.143C48.1486 101.921 47.7082 101.891 47.1533 101.891H46.8275V105.749C46.8275 106.734 47.3162 107.227 48.3115 107.227V107.551H43.2445V107.227C44.2337 107.227 44.7284 106.74 44.7284 105.749V97.51C44.7284 96.5185 44.2398 96.0198 43.2445 96.0198V95.6833H49.2766C50.2659 95.6833 51.1164 95.9837 51.8282 96.5786C52.534 97.1735 52.8838 97.9006 52.8838 98.7479C52.8838 99.5051 52.6003 100.166 52.0333 100.731C51.4663 101.296 50.7605 101.626 49.8919 101.758C50.5614 101.795 51.0802 102.173 51.4361 102.882L52.5581 105.118C53.2578 106.524 54.0661 107.227 54.9951 107.227H54.989ZM49.8316 100.683C50.4106 100.172 50.7002 99.5291 50.7002 98.7659C50.7002 98.0028 50.4106 97.3538 49.8316 96.837C49.2525 96.3262 48.5045 96.152 47.5876 96.152H46.8215V101.386H47.5876C48.5045 101.386 49.2525 101.2 49.8316 100.689V100.683ZM65.7202 97.1495C66.7879 98.2492 67.3248 99.7094 67.3248 101.524C67.3248 102.696 67.0413 103.76 66.4803 104.709C65.9133 105.67 65.1472 106.416 64.182 106.95C63.2048 107.491 62.1492 107.768 61.0152 107.768C59.2779 107.768 57.8181 107.185 56.6358 106.025C55.4535 104.865 54.8624 103.447 54.8624 101.764C54.8624 100.605 55.1218 99.5531 55.6285 98.6277C56.1593 97.6843 56.9133 96.9211 57.8965 96.3563C58.8798 95.7854 59.9897 95.497 61.2323 95.491C63.1445 95.491 64.6344 96.0438 65.7142 97.1555L65.7202 97.1495ZM64.9843 101.542C64.9843 99.8476 64.6465 98.4955 63.9769 97.486C63.2953 96.4584 62.3664 95.9477 61.1841 95.9477C60.4119 95.9477 59.7183 96.2121 59.103 96.7469C58.4998 97.2757 58.0292 97.9727 57.7035 98.8501C57.3778 99.7214 57.2149 100.689 57.2149 101.752C57.2149 103.315 57.5889 104.637 58.3369 105.725C59.0728 106.8 59.9716 107.341 61.0272 107.341C61.7209 107.341 62.3724 107.089 62.9937 106.59C63.5909 106.097 64.0735 105.4 64.4414 104.505C64.8033 103.627 64.9783 102.642 64.9783 101.554L64.9843 101.542ZM76.6022 96.0138C77.5975 96.0138 78.0982 96.5125 78.0982 97.504V103.766C75.613 100.43 73.9541 98.1169 72.808 96.4704C72.5366 96.1339 72.3978 95.8756 72.3978 95.6893H68.2356V96.0138C69.2068 96.0138 69.6954 96.5125 69.7015 97.504V105.731C69.7015 106.728 69.2068 107.233 68.2356 107.233V107.551H71.6921V107.251C70.6968 107.251 70.2082 106.746 70.2082 105.737V97.0774L77.9776 107.557H78.6049V97.516C78.6049 96.5245 79.0935 96.0318 80.0767 96.0378V95.6953H76.5962V96.0198L76.6022 96.0138ZM91.8515 97.1495C92.9192 98.2492 93.456 99.7094 93.456 101.524C93.456 102.696 93.1725 103.76 92.6115 104.709C92.0445 105.67 91.2784 106.416 90.3133 106.95C89.3361 107.491 88.2805 107.768 87.1464 107.768C85.4092 107.768 83.9494 107.185 82.7671 106.025C81.5848 104.865 80.9936 103.447 80.9936 101.764C80.9936 100.605 81.253 99.5531 81.7597 98.6277C82.2905 97.6843 83.0446 96.9211 84.0278 96.3563C85.011 95.7854 86.121 95.497 87.3636 95.491C89.2758 95.491 90.7657 96.0438 91.8455 97.1555L91.8515 97.1495ZM91.1156 101.542C91.1156 99.8476 90.7778 98.4955 90.1082 97.486C89.4266 96.4584 88.4976 95.9477 87.3153 95.9477C86.5432 95.9477 85.8495 96.2121 85.2342 96.7469C84.631 97.2757 84.1605 97.9727 83.8348 98.8501C83.509 99.7214 83.3462 100.689 83.3462 101.752C83.3462 103.315 83.7202 104.637 84.4681 105.725C85.2041 106.8 86.1029 107.341 87.1585 107.341C87.8522 107.341 88.5036 107.089 89.125 106.59C89.7221 106.097 90.2047 105.4 90.5727 104.505C90.9346 103.627 91.1095 102.642 91.1095 101.554L91.1156 101.542ZM105.478 95.6953H102.317V96.0138C103.252 96.0138 103.524 96.5125 103.144 97.504L100.381 104.679C100.381 104.679 98.0284 99.3368 97.2684 97.504C96.8521 96.5065 97.1779 96.0138 98.2335 96.0138V95.6953H93.3052V96.0138C94.005 96.0138 94.5599 96.5125 94.9822 97.504L99.3193 107.545H99.8682L103.687 97.504C104.061 96.5125 104.658 96.0138 105.478 96.0138V95.6953ZM112.21 101.007C111.818 100.779 111.088 100.467 110.026 100.076C108.928 99.6793 108.235 99.3368 107.945 99.0424C107.71 98.814 107.565 98.5556 107.505 98.2612C107.433 97.9126 107.439 97.5821 107.535 97.2577C107.62 96.9211 107.782 96.6567 108.036 96.4584C108.446 96.1099 108.971 95.9296 109.616 95.9176C110.527 95.8816 111.245 96.2421 111.806 96.9091C112.234 97.4139 112.572 98.0869 112.795 99.0123L113.097 98.9823L112.843 95.6833H112.524C112.512 96.17 112.126 96.2481 111.359 95.9116C110.75 95.6472 110.141 95.515 109.532 95.515C108.368 95.515 107.408 95.8335 106.666 96.4765C106.021 97.0774 105.701 97.8405 105.701 98.7539C105.713 100.034 106.546 101.097 108.205 101.933C108.488 102.077 108.922 102.263 109.496 102.486C110.075 102.702 110.569 102.924 110.979 103.153C111.396 103.393 111.691 103.627 111.878 103.862C112.083 104.144 112.21 104.451 112.24 104.781C112.276 105.202 112.228 105.562 112.107 105.863C111.981 106.223 111.758 106.512 111.438 106.74C110.931 107.101 110.274 107.269 109.465 107.239C108.452 107.203 107.613 106.794 106.956 106.157C106.401 105.604 106.003 104.895 105.768 103.904H105.472V107.539H105.768C105.792 107.185 105.876 106.938 106.021 106.8C106.166 106.656 106.329 106.614 106.51 106.674C106.685 106.734 106.926 106.842 107.215 107.01C107.981 107.443 108.748 107.677 109.496 107.714C110.798 107.78 111.854 107.437 112.662 106.692C113.435 105.971 113.851 105.094 113.905 104.06C113.935 103.315 113.808 102.696 113.513 102.209C113.217 101.746 112.783 101.344 112.204 101.001L112.21 101.007ZM139.276 107.185V107.545H134.384V107.185C135.313 107.197 135.603 106.77 135.253 105.905L134.39 103.772H130.192L129.371 105.905C129.028 106.758 129.317 107.185 130.246 107.185V107.545H122.802C122.845 106.938 122.579 106.241 122.006 105.46L119.177 101.578L118.495 102.287V105.725C118.495 106.722 118.99 107.227 119.985 107.227V107.545H114.918V107.227C115.914 107.227 116.414 106.728 116.414 105.725V97.51C116.414 96.5125 115.914 96.0078 114.918 96.0078V95.6833H119.973V96.0078C118.984 96.0078 118.489 96.5065 118.489 97.51L118.477 101.548L122.247 97.5461C123.164 96.5546 123.086 96.0318 122.091 96.0078V95.6833H125.879V96.0078C124.787 96.1159 123.804 96.6267 122.935 97.5341L120.727 99.9137L124.624 105.454C125.451 106.632 126.271 107.185 127.079 107.185C127.912 107.203 128.503 106.776 128.841 105.905L132.743 95.6833H133.298L137.563 105.905C137.925 106.734 138.498 107.161 139.282 107.185H139.276ZM134.179 103.267C133.763 102.221 133.292 101.079 132.249 98.4294C131.06 101.53 130.481 103.044 130.391 103.267H134.179ZM143.589 105.743V102.041C143.589 101.65 143.601 101.452 143.637 101.332C143.68 101.188 143.758 101.073 143.824 100.977C144.422 100.106 146.183 97.5401 146.183 97.5401C146.871 96.5426 147.619 96.0318 148.427 96.0138V95.6893H145.29V96.0138C146.201 96.0138 146.304 96.5185 145.604 97.516L143.251 100.929L141.116 97.5341C140.477 96.5366 140.646 96.0318 141.623 96.0198V95.6953H136.688V96.0198C137.364 96.0198 138.003 96.5185 138.613 97.51L140.814 101.085C141.164 101.65 141.357 102.011 141.394 102.167C141.478 102.462 141.532 102.966 141.538 103.693V105.749C141.538 106.74 141.038 107.227 140.042 107.227V107.551H145.115V107.227C144.114 107.227 143.607 106.734 143.601 105.749L143.589 105.743ZM158 107.185V107.545H153.108V107.185C154.037 107.197 154.326 106.77 153.977 105.905L153.114 103.772H148.916L148.095 105.905C147.751 106.758 148.041 107.185 148.97 107.185V107.545H145.803V107.185C146.635 107.203 147.227 106.776 147.564 105.905L151.467 95.6833H152.022L156.287 105.905C156.649 106.734 157.222 107.161 158.006 107.185H158ZM152.903 103.267C152.487 102.221 152.016 101.079 150.973 98.4294C149.784 101.53 149.205 103.044 149.115 103.267H152.903Z" fill="white"/>
<path d="M0 112.065H158V113.027H0V112.065ZM158 90.204V91.1655H94.5479C93.2027 88.6477 91.954 86.0698 90.7959 83.4498C87.7436 77.8132 83.1169 73.5468 74.2617 74.346C69.4059 74.7846 66.1365 77.9695 63.2591 80.8418C63.2048 80.8959 63.1505 80.95 63.0962 81.0041L63.0661 81.0341C58.8074 85.2345 54.2712 88.6236 52.0514 90.204H61.0875V91.1655H0V90.204H34.4677C40.524 90.15 55.4957 81.7071 62.867 70.9628C62.0708 69.4425 60.6713 68.2828 58.2886 67.9943V66.6122H65.4005C72.4762 53.8488 77.2416 30.8219 77.3864 11.4604C79.6243 10.0783 81.1746 6.51494 81.1746 0.0130615H83.2557C83.316 4.51991 83.0687 19.1101 85.385 35.7073C88.1357 55.4473 94.6987 78.0476 111.92 90.2161H158.006L158 90.204ZM84.7336 66.6062C82.5861 59.1248 81.06 51.4933 80.0888 43.9879C80.0586 43.7355 79.7028 43.7295 79.6545 43.9758C78.0318 52.4066 75.7215 60.3747 73.0312 66.6062H84.7336Z" fill="#9CB72C"/>
</g>
<defs>
<clipPath id="clip0_173_860">
<rect width="158" height="133" fill="white"/>
</clipPath>
</defs>
</svg>
